<svg width="274" height="54" viewBox="0 0 274 54" fill="none" xmlns="http://www.w3.org/2000/svg">
<mask id="path-1-outside-1_1_281" maskUnits="userSpaceOnUse" x="0" y="0" width="274" height="54" fill="black">
<rect fill="white" width="274" height="54"/>
<path d="M23.929 51.938C19.6857 51.938 15.8778 50.8995 12.5055 48.8225C9.13317 46.7455 6.46433 43.8087 4.499 40.012C2.53367 36.2153 1.551 31.7487 1.551 26.612C1.551 22.7483 2.154 19.2643 3.36 16.16C4.566 13.0333 6.21867 10.3645 8.318 8.1535C10.4173 5.9425 12.8182 4.24516 15.5205 3.0615C18.2452 1.87783 21.115 1.286 24.13 1.286C28.351 1.286 32.1588 2.30216 35.5535 4.3345C38.9705 6.36683 41.6728 9.28133 43.6605 13.078C45.6482 16.8523 46.642 21.3637 46.642 26.612C46.642 29.6493 46.1618 32.441 45.2015 34.987C44.2635 37.533 42.756 40.28 40.679 43.228L45.771 48.387L42.153 51.871L25.604 35.054L29.222 31.503L35.922 38.471L36.793 39.744L37.262 38.136C38.2447 36.327 38.9147 34.4398 39.272 32.4745C39.6293 30.5092 39.808 28.555 39.808 26.612C39.808 22.4133 39.1045 18.7842 37.6975 15.7245C36.2905 12.6648 34.3922 10.3087 32.0025 8.656C29.6352 7.00333 27.011 6.177 24.13 6.177C21.2713 6.177 18.636 7.00333 16.224 8.656C13.8343 10.3087 11.9137 12.6648 10.462 15.7245C9.03267 18.7842 8.318 22.4133 8.318 26.612C8.318 29.7163 8.70883 32.5303 9.4905 35.054C10.2945 37.5553 11.4 39.7105 12.807 41.5195C14.2363 43.3062 15.9002 44.6797 17.7985 45.64C19.6968 46.578 21.7403 47.047 23.929 47.047C24.733 47.047 25.4253 47.0023 26.006 46.913C26.5867 46.8013 27.212 46.6673 27.882 46.511C29.0657 46.1983 30.3163 46.1872 31.634 46.4775C32.9517 46.7678 33.979 47.315 34.716 48.119C32.8847 49.459 31.0757 50.4305 29.289 51.0335C27.5247 51.6365 25.738 51.938 23.929 51.938ZM74.0508 51.938C70.2541 51.938 67.0046 51.1563 64.3023 49.593C61.6223 48.0073 59.5676 45.7963 58.1383 42.96C56.7313 40.1237 56.0278 36.8183 56.0278 33.044V2.291H62.3258V34.116C62.3258 38.069 63.3866 41.2292 65.5083 43.5965C67.6523 45.9415 70.4998 47.114 74.0508 47.114C77.6018 47.114 80.4381 45.9415 82.5598 43.5965C84.7038 41.2292 85.7758 38.069 85.7758 34.116V2.291H92.0738V33.044C92.0738 36.8183 91.3144 40.1237 89.7958 42.96C88.2771 45.7963 86.1554 48.0073 83.4308 49.593C80.7284 51.1563 77.6018 51.938 74.0508 51.938ZM103.285 51V2.291H109.449V51H103.285ZM121.076 51V48.454L146.938 8.053L148.01 6.914L146.402 7.115H124.024V2.291H155.447V4.837L129.518 45.372L128.513 46.377L129.987 46.176H156.117V51H121.076ZM161.119 51V48.454L186.981 8.053L188.053 6.914L186.445 7.115H164.067V2.291H195.49V4.837L169.561 45.372L168.556 46.377L170.03 46.176H196.16V51H161.119ZM201.43 51V2.291H207.862V46.109H228.23L228.163 51H201.43ZM248.834 51V30.297L232.151 2.291H239.387L255.065 28.421V51H248.834ZM256.941 25.808C256.405 25.1157 255.936 24.3117 255.534 23.396C255.155 22.4803 254.954 21.5088 254.931 20.4815C254.909 19.4542 255.199 18.4157 255.802 17.366L264.244 2.291H271.279L256.941 25.808Z"/>
</mask>
<path d="M23.929 51.938C19.6857 51.938 15.8778 50.8995 12.5055 48.8225C9.13317 46.7455 6.46433 43.8087 4.499 40.012C2.53367 36.2153 1.551 31.7487 1.551 26.612C1.551 22.7483 2.154 19.2643 3.36 16.16C4.566 13.0333 6.21867 10.3645 8.318 8.1535C10.4173 5.9425 12.8182 4.24516 15.5205 3.0615C18.2452 1.87783 21.115 1.286 24.13 1.286C28.351 1.286 32.1588 2.30216 35.5535 4.3345C38.9705 6.36683 41.6728 9.28133 43.6605 13.078C45.6482 16.8523 46.642 21.3637 46.642 26.612C46.642 29.6493 46.1618 32.441 45.2015 34.987C44.2635 37.533 42.756 40.28 40.679 43.228L45.771 48.387L42.153 51.871L25.604 35.054L29.222 31.503L35.922 38.471L36.793 39.744L37.262 38.136C38.2447 36.327 38.9147 34.4398 39.272 32.4745C39.6293 30.5092 39.808 28.555 39.808 26.612C39.808 22.4133 39.1045 18.7842 37.6975 15.7245C36.2905 12.6648 34.3922 10.3087 32.0025 8.656C29.6352 7.00333 27.011 6.177 24.13 6.177C21.2713 6.177 18.636 7.00333 16.224 8.656C13.8343 10.3087 11.9137 12.6648 10.462 15.7245C9.03267 18.7842 8.318 22.4133 8.318 26.612C8.318 29.7163 8.70883 32.5303 9.4905 35.054C10.2945 37.5553 11.4 39.7105 12.807 41.5195C14.2363 43.3062 15.9002 44.6797 17.7985 45.64C19.6968 46.578 21.7403 47.047 23.929 47.047C24.733 47.047 25.4253 47.0023 26.006 46.913C26.5867 46.8013 27.212 46.6673 27.882 46.511C29.0657 46.1983 30.3163 46.1872 31.634 46.4775C32.9517 46.7678 33.979 47.315 34.716 48.119C32.8847 49.459 31.0757 50.4305 29.289 51.0335C27.5247 51.6365 25.738 51.938 23.929 51.938ZM74.0508 51.938C70.2541 51.938 67.0046 51.1563 64.3023 49.593C61.6223 48.0073 59.5676 45.7963 58.1383 42.96C56.7313 40.1237 56.0278 36.8183 56.0278 33.044V2.291H62.3258V34.116C62.3258 38.069 63.3866 41.2292 65.5083 43.5965C67.6523 45.9415 70.4998 47.114 74.0508 47.114C77.6018 47.114 80.4381 45.9415 82.5598 43.5965C84.7038 41.2292 85.7758 38.069 85.7758 34.116V2.291H92.0738V33.044C92.0738 36.8183 91.3144 40.1237 89.7958 42.96C88.2771 45.7963 86.1554 48.0073 83.4308 49.593C80.7284 51.1563 77.6018 51.938 74.0508 51.938ZM103.285 51V2.291H109.449V51H103.285ZM121.076 51V48.454L146.938 8.053L148.01 6.914L146.402 7.115H124.024V2.291H155.447V4.837L129.518 45.372L128.513 46.377L129.987 46.176H156.117V51H121.076ZM161.119 51V48.454L186.981 8.053L188.053 6.914L186.445 7.115H164.067V2.291H195.49V4.837L169.561 45.372L168.556 46.377L170.03 46.176H196.16V51H161.119ZM201.43 51V2.291H207.862V46.109H228.23L228.163 51H201.43ZM248.834 51V30.297L232.151 2.291H239.387L255.065 28.421V51H248.834ZM256.941 25.808C256.405 25.1157 255.936 24.3117 255.534 23.396C255.155 22.4803 254.954 21.5088 254.931 20.4815C254.909 19.4542 255.199 18.4157 255.802 17.366L264.244 2.291H271.279L256.941 25.808Z" fill="white"/>
<path d="M12.5055 48.8225L13.0299 47.971L12.5055 48.8225ZM4.499 40.012L3.61093 40.4717L4.499 40.012ZM3.36 16.16L4.29213 16.5221L4.293 16.5199L3.36 16.16ZM8.318 8.1535L9.04318 8.84206L8.318 8.1535ZM15.5205 3.0615L15.122 2.1443L15.1193 2.14551L15.5205 3.0615ZM35.5535 4.3345L35.0398 5.19249L35.0423 5.19397L35.5535 4.3345ZM43.6605 13.078L42.7746 13.5418L42.7757 13.544L43.6605 13.078ZM45.2015 34.987L44.2658 34.6341L44.2632 34.6413L45.2015 34.987ZM40.679 43.228L39.8615 42.652L39.38 43.3355L39.9673 43.9305L40.679 43.228ZM45.771 48.387L46.4646 49.1073L47.1939 48.4051L46.4827 47.6845L45.771 48.387ZM42.153 51.871L41.4402 52.5724L42.1341 53.2775L42.8466 52.5913L42.153 51.871ZM25.604 35.054L24.9035 34.3403L24.1889 35.0417L24.8912 35.7554L25.604 35.054ZM29.222 31.503L29.9428 30.8099L29.2426 30.0816L28.5215 30.7893L29.222 31.503ZM35.922 38.471L36.7473 37.9063L36.7004 37.8378L36.6428 37.7779L35.922 38.471ZM36.793 39.744L35.9677 40.3087L37.1612 42.053L37.753 40.024L36.793 39.744ZM37.262 38.136L36.3833 37.6587L36.3321 37.753L36.302 37.856L37.262 38.136ZM39.272 32.4745L40.2559 32.6534L39.272 32.4745ZM37.6975 15.7245L38.606 15.3067L37.6975 15.7245ZM32.0025 8.656L31.4301 9.47596L31.4337 9.47847L32.0025 8.656ZM16.224 8.656L15.6588 7.83106L15.6552 7.83353L16.224 8.656ZM10.462 15.7245L9.55852 15.2958L9.55599 15.3013L10.462 15.7245ZM9.4905 35.054L8.53522 35.3499L8.53847 35.36L9.4905 35.054ZM12.807 41.5195L12.0176 42.1335L12.0261 42.1442L12.807 41.5195ZM17.7985 45.64L17.3471 46.5324L17.3555 46.5365L17.7985 45.64ZM26.006 46.913L26.1581 47.9014L26.1765 47.8985L26.1948 47.895L26.006 46.913ZM27.882 46.511L28.1092 47.4848L28.1234 47.4815L28.1374 47.4778L27.882 46.511ZM34.716 48.119L35.3065 48.926L36.2078 48.2665L35.4532 47.4433L34.716 48.119ZM29.289 51.0335L28.9692 50.086L28.9656 50.0872L29.289 51.0335ZM23.929 50.938C19.8571 50.938 16.2332 49.944 13.0299 47.971L11.9811 49.674C15.5224 51.855 19.5142 52.938 23.929 52.938V50.938ZM13.0299 47.971C9.82434 45.9967 7.27584 43.2011 5.38707 39.5523L3.61093 40.4717C5.65282 44.4163 8.44199 47.4943 11.9811 49.674L13.0299 47.971ZM5.38707 39.5523C3.5087 35.9236 2.551 31.6207 2.551 26.612H0.551C0.551 31.8767 1.55864 36.5071 3.61093 40.4717L5.38707 39.5523ZM2.551 26.612C2.551 22.8527 3.13756 19.4941 4.29213 16.5221L2.42787 15.7979C1.17044 19.0346 0.551 22.644 0.551 26.612H2.551ZM4.293 16.5199C5.45659 13.5032 7.04252 10.9491 9.04318 8.84206L7.59282 7.46494C5.39482 9.77986 3.67541 12.5635 2.427 15.8001L4.293 16.5199ZM9.04318 8.84206C11.0539 6.72439 13.3456 5.10588 15.9217 3.97748L15.1193 2.14551C12.2908 3.38445 9.78077 5.16061 7.59282 7.46494L9.04318 8.84206ZM15.919 3.97869C18.516 2.85048 21.25 2.286 24.13 2.286V0.285997C20.98 0.285997 17.9744 0.905186 15.122 2.14431L15.919 3.97869ZM24.13 2.286C28.1827 2.286 31.8108 3.25933 35.0398 5.19249L36.0672 3.47651C32.5068 1.34499 28.5193 0.285997 24.13 0.285997V2.286ZM35.0423 5.19397C38.2878 7.12427 40.8658 9.8959 42.7746 13.5418L44.5464 12.6142C42.4798 8.66677 39.6532 5.60939 36.0647 3.47503L35.0423 5.19397ZM42.7757 13.544C44.6722 17.1452 45.642 21.4892 45.642 26.612H47.642C47.642 21.2382 46.6241 16.5595 44.5453 12.612L42.7757 13.544ZM45.642 26.612C45.642 29.5427 45.179 32.2132 44.2659 34.6341L46.1372 35.3399C47.1447 32.6688 47.642 29.7559 47.642 26.612H45.642ZM44.2632 34.6413C43.3633 37.0839 41.9037 39.7534 39.8615 42.652L41.4965 43.804C43.6083 40.8066 45.1637 37.9821 46.1398 35.3327L44.2632 34.6413ZM39.9673 43.9305L45.0593 49.0895L46.4827 47.6845L41.3907 42.5255L39.9673 43.9305ZM45.0774 47.6667L41.4594 51.1507L42.8466 52.5913L46.4646 49.1073L45.0774 47.6667ZM42.8658 51.1696L26.3168 34.3526L24.8912 35.7554L41.4402 52.5724L42.8658 51.1696ZM26.3045 35.7677L29.9225 32.2167L28.5215 30.7893L24.9035 34.3403L26.3045 35.7677ZM28.5012 32.1961L35.2012 39.1641L36.6428 37.7779L29.9428 30.8099L28.5012 32.1961ZM35.0967 39.0357L35.9677 40.3087L37.6183 39.1793L36.7473 37.9063L35.0967 39.0357ZM37.753 40.024L38.222 38.416L36.302 37.856L35.833 39.464L37.753 40.024ZM38.1407 38.6133C39.1725 36.7139 39.879 34.7263 40.2559 32.6534L38.2881 32.2956C37.9504 34.1533 37.3168 35.9401 36.3833 37.6587L38.1407 38.6133ZM40.2559 32.6534C40.6236 30.6307 40.808 28.6166 40.808 26.612H38.808C38.808 28.4933 38.635 30.3876 38.2881 32.2956L40.2559 32.6534ZM40.808 26.612C40.808 22.3037 40.0863 18.5256 38.606 15.3067L36.789 16.1423C38.1227 19.0428 38.808 22.523 38.808 26.612H40.808ZM38.606 15.3067C37.1362 12.1104 35.1306 9.60347 32.5713 7.83353L31.4337 9.47847C33.6538 11.0139 35.4448 13.2193 36.789 16.1423L38.606 15.3067ZM32.5749 7.83604C30.0401 6.06644 27.2162 5.177 24.13 5.177V7.177C26.8058 7.177 29.2302 7.94022 31.4301 9.47596L32.5749 7.83604ZM24.13 5.177C21.0647 5.177 18.2332 6.06713 15.6588 7.83107L16.7892 9.48093C19.0388 7.93953 21.4779 7.177 24.13 7.177V5.177ZM15.6552 7.83353C13.0991 9.60132 11.0728 12.1043 9.55853 15.2958L11.3655 16.1531C12.7546 13.2253 14.5696 11.016 16.7928 9.47847L15.6552 7.83353ZM9.55599 15.3013C8.05159 18.5216 7.318 22.3017 7.318 26.612H9.318C9.318 22.5249 10.0137 19.0467 11.368 16.1477L9.55599 15.3013ZM7.318 26.612C7.318 29.7996 7.71926 32.7153 8.53527 35.3499L10.4457 34.7581C9.6984 32.3453 9.318 29.6331 9.318 26.612H7.318ZM8.53847 35.36C9.3731 37.9566 10.5291 40.2196 12.0176 42.1334L13.5964 40.9056C12.2709 39.2014 11.2159 37.154 10.4425 34.748L8.53847 35.36ZM12.0261 42.1442C13.538 44.034 15.3116 45.5026 17.3471 46.5323L18.2499 44.7477C16.4887 43.8567 14.9347 42.5783 13.5879 40.8948L12.0261 42.1442ZM17.3555 46.5365C19.3963 47.5449 21.592 48.047 23.929 48.047V46.047C21.8887 46.047 19.9974 45.6111 18.2415 44.7435L17.3555 46.5365ZM23.929 48.047C24.7668 48.047 25.5126 48.0007 26.1581 47.9014L25.8539 45.9246C25.3381 46.004 24.6992 46.047 23.929 46.047V48.047ZM26.1948 47.895C26.7902 47.7805 27.4285 47.6437 28.1092 47.4848L27.6548 45.5372C26.9955 45.691 26.3831 45.8222 25.8172 45.931L26.1948 47.895ZM28.1374 47.4778C29.152 47.2098 30.2404 47.1944 31.4188 47.4541L31.8492 45.5009C30.3923 45.1799 28.9793 45.1868 27.6266 45.5442L28.1374 47.4778ZM31.4188 47.4541C32.5838 47.7108 33.4107 48.1749 33.9788 48.7947L35.4532 47.4433C34.5473 46.4551 33.3195 45.8249 31.8492 45.5009L31.4188 47.4541ZM34.1255 47.312C32.3605 48.6035 30.6416 49.5216 28.9692 50.086L29.6088 51.981C31.5097 51.3394 33.4089 50.3145 35.3065 48.926L34.1255 47.312ZM28.9656 50.0872C27.3021 50.6558 25.6246 50.938 23.929 50.938V52.938C25.8514 52.938 27.7472 52.6172 29.6124 51.9798L28.9656 50.0872ZM64.3023 49.593L63.793 50.4537L63.8015 50.4586L64.3023 49.593ZM58.1383 42.96L57.2424 43.4044L57.2452 43.41L58.1383 42.96ZM56.0278 2.291V1.291H55.0278V2.291H56.0278ZM62.3258 2.291H63.3258V1.291H62.3258V2.291ZM65.5083 43.5965L64.7635 44.2639L64.7702 44.2713L65.5083 43.5965ZM82.5598 43.5965L81.8186 42.9252L81.8182 42.9256L82.5598 43.5965ZM85.7758 2.291V1.291H84.7758V2.291H85.7758ZM92.0738 2.291H93.0738V1.291H92.0738V2.291ZM89.7958 42.96L88.9142 42.488L89.7958 42.96ZM83.4308 49.593L83.9315 50.4586L83.9337 50.4573L83.4308 49.593ZM74.0508 50.938C70.392 50.938 67.3234 50.1855 64.803 48.7274L63.8015 50.4586C66.6858 52.1272 70.1161 52.938 74.0508 52.938V50.938ZM64.8115 48.7324C62.2995 47.2461 60.3764 45.1792 59.0313 42.51L57.2452 43.41C58.7588 46.4135 60.945 48.7686 63.793 50.4536L64.8115 48.7324ZM59.0341 42.5156C57.7076 39.8415 57.0278 36.6935 57.0278 33.044H55.0278C55.0278 36.9432 55.755 40.4058 57.2424 43.4044L59.0341 42.5156ZM57.0278 33.044V2.291H55.0278V33.044H57.0278ZM56.0278 3.291H62.3258V1.291H56.0278V3.291ZM61.3258 2.291V34.116H63.3258V2.291H61.3258ZM61.3258 34.116C61.3258 38.2529 62.4401 41.6714 64.7636 44.2639L66.2529 42.9291C64.3331 40.7869 63.3258 37.8851 63.3258 34.116H61.3258ZM64.7702 44.2713C67.1271 46.8491 70.2556 48.114 74.0508 48.114V46.114C70.7439 46.114 68.1775 45.0339 66.2463 42.9217L64.7702 44.2713ZM74.0508 48.114C77.8458 48.114 80.9656 46.8489 83.3013 44.2674L81.8182 42.9256C79.9105 45.0341 77.3577 46.114 74.0508 46.114V48.114ZM83.301 44.2678C85.6487 41.6755 86.7758 38.2555 86.7758 34.116H84.7758C84.7758 37.8825 83.7588 40.7828 81.8186 42.9252L83.301 44.2678ZM86.7758 34.116V2.291H84.7758V34.116H86.7758ZM85.7758 3.291H92.0738V1.291H85.7758V3.291ZM91.0738 2.291V33.044H93.0738V2.291H91.0738ZM91.0738 33.044C91.0738 36.6822 90.3427 39.8201 88.9142 42.488L90.6773 43.432C92.2862 40.4273 93.0738 36.9545 93.0738 33.044H91.0738ZM88.9142 42.488C87.481 45.1646 85.4889 47.2382 82.9278 48.7287L83.9337 50.4573C86.8219 48.7765 89.0731 46.4281 90.6773 43.432L88.9142 42.488ZM82.93 48.7274C80.3998 50.1911 77.4505 50.938 74.0508 50.938V52.938C77.753 52.938 81.057 52.1215 83.9315 50.4586L82.93 48.7274ZM103.285 51H102.285V52H103.285V51ZM103.285 2.291V1.291H102.285V2.291H103.285ZM109.449 2.291H110.449V1.291H109.449V2.291ZM109.449 51V52H110.449V51H109.449ZM104.285 51V2.291H102.285V51H104.285ZM103.285 3.291H109.449V1.291H103.285V3.291ZM108.449 2.291V51H110.449V2.291H108.449ZM109.449 50H103.285V52H109.449V50ZM121.076 51H120.076V52H121.076V51ZM121.076 48.454L120.234 47.9149L120.076 48.1613V48.454H121.076ZM146.938 8.053L146.21 7.36763L146.146 7.43544L146.096 7.51386L146.938 8.053ZM148.01 6.914L148.738 7.59936L150.641 5.5773L147.886 5.92172L148.01 6.914ZM146.402 7.115V8.115H146.464L146.526 8.10728L146.402 7.115ZM124.024 7.115H123.024V8.115H124.024V7.115ZM124.024 2.291V1.291H123.024V2.291H124.024ZM155.447 2.291H156.447V1.291H155.447V2.291ZM155.447 4.837L156.289 5.37586L156.447 5.12947V4.837H155.447ZM129.518 45.372L130.225 46.0791L130.302 46.0023L130.36 45.9109L129.518 45.372ZM128.513 46.377L127.806 45.6699L125.707 47.7689L128.648 47.3678L128.513 46.377ZM129.987 46.176V45.176H129.919L129.852 45.1852L129.987 46.176ZM156.117 46.176H157.117V45.176H156.117V46.176ZM156.117 51V52H157.117V51H156.117ZM122.076 51V48.454H120.076V51H122.076ZM121.918 48.9931L147.78 8.59213L146.096 7.51386L120.234 47.9149L121.918 48.9931ZM147.666 8.73836L148.738 7.59936L147.282 6.22863L146.21 7.36763L147.666 8.73836ZM147.886 5.92172L146.278 6.12272L146.526 8.10728L148.134 7.90627L147.886 5.92172ZM146.402 6.115H124.024V8.115H146.402V6.115ZM125.024 7.115V2.291H123.024V7.115H125.024ZM124.024 3.291H155.447V1.291H124.024V3.291ZM154.447 2.291V4.837H156.447V2.291H154.447ZM154.604 4.29814L128.675 44.8331L130.36 45.9109L156.289 5.37586L154.604 4.29814ZM128.811 44.6649L127.806 45.6699L129.22 47.0841L130.225 46.0791L128.811 44.6649ZM128.648 47.3678L130.122 47.1668L129.852 45.1852L128.378 45.3862L128.648 47.3678ZM129.987 47.176H156.117V45.176H129.987V47.176ZM155.117 46.176V51H157.117V46.176H155.117ZM156.117 50H121.076V52H156.117V50ZM161.119 51H160.119V52H161.119V51ZM161.119 48.454L160.277 47.9149L160.119 48.1613V48.454H161.119ZM186.981 8.053L186.253 7.36763L186.189 7.43544L186.139 7.51386L186.981 8.053ZM188.053 6.914L188.781 7.59936L190.684 5.5773L187.929 5.92172L188.053 6.914ZM186.445 7.115V8.115H186.507L186.569 8.10728L186.445 7.115ZM164.067 7.115H163.067V8.115H164.067V7.115ZM164.067 2.291V1.291H163.067V2.291H164.067ZM195.49 2.291H196.49V1.291H195.49V2.291ZM195.49 4.837L196.332 5.37586L196.49 5.12947V4.837H195.49ZM169.561 45.372L170.268 46.0791L170.345 46.0023L170.403 45.9109L169.561 45.372ZM168.556 46.377L167.849 45.6699L165.75 47.7689L168.691 47.3678L168.556 46.377ZM170.03 46.176V45.176H169.962L169.895 45.1852L170.03 46.176ZM196.16 46.176H197.16V45.176H196.16V46.176ZM196.16 51V52H197.16V51H196.16ZM162.119 51V48.454H160.119V51H162.119ZM161.961 48.9931L187.823 8.59213L186.139 7.51386L160.277 47.9149L161.961 48.9931ZM187.709 8.73836L188.781 7.59936L187.325 6.22863L186.253 7.36763L187.709 8.73836ZM187.929 5.92172L186.321 6.12272L186.569 8.10728L188.177 7.90627L187.929 5.92172ZM186.445 6.115H164.067V8.115H186.445V6.115ZM165.067 7.115V2.291H163.067V7.115H165.067ZM164.067 3.291H195.49V1.291H164.067V3.291ZM194.49 2.291V4.837H196.49V2.291H194.49ZM194.647 4.29814L168.718 44.8331L170.403 45.9109L196.332 5.37586L194.647 4.29814ZM168.854 44.6649L167.849 45.6699L169.263 47.0841L170.268 46.0791L168.854 44.6649ZM168.691 47.3678L170.165 47.1668L169.895 45.1852L168.421 45.3862L168.691 47.3678ZM170.03 47.176H196.16V45.176H170.03V47.176ZM195.16 46.176V51H197.16V46.176H195.16ZM196.16 50H161.119V52H196.16V50ZM201.43 51H200.43V52H201.43V51ZM201.43 2.291V1.291H200.43V2.291H201.43ZM207.862 2.291H208.862V1.291H207.862V2.291ZM207.862 46.109H206.862V47.109H207.862V46.109ZM228.23 46.109L229.23 46.1227L229.244 45.109H228.23V46.109ZM228.163 51V52H229.149L229.163 51.0137L228.163 51ZM202.43 51V2.291H200.43V51H202.43ZM201.43 3.291H207.862V1.291H201.43V3.291ZM206.862 2.291V46.109H208.862V2.291H206.862ZM207.862 47.109H228.23V45.109H207.862V47.109ZM227.23 46.0953L227.163 50.9863L229.163 51.0137L229.23 46.1227L227.23 46.0953ZM228.163 50H201.43V52H228.163V50ZM248.834 51H247.834V52H248.834V51ZM248.834 30.297H249.834V30.0217L249.694 29.7852L248.834 30.297ZM232.151 2.291V1.291H230.392L231.292 2.80277L232.151 2.291ZM239.387 2.291L240.245 1.7765L239.954 1.291H239.387V2.291ZM255.065 28.421H256.065V28.144L255.923 27.9065L255.065 28.421ZM255.065 51V52H256.065V51H255.065ZM256.941 25.808L256.151 26.4202L257.039 27.5682L257.795 26.3286L256.941 25.808ZM255.534 23.396L254.611 23.779L254.615 23.7885L254.619 23.798L255.534 23.396ZM254.931 20.4815L255.931 20.4598L254.931 20.4815ZM255.802 17.366L256.67 17.8642L256.675 17.8546L255.802 17.366ZM264.244 2.291V1.291H263.658L263.372 1.80239L264.244 2.291ZM271.279 2.291L272.133 2.81156L273.06 1.291H271.279V2.291ZM249.834 51V30.297H247.834V51H249.834ZM249.694 29.7852L233.011 1.77922L231.292 2.80277L247.975 30.8088L249.694 29.7852ZM232.151 3.291H239.387V1.291H232.151V3.291ZM238.53 2.80549L254.208 28.9355L255.923 27.9065L240.245 1.7765L238.53 2.80549ZM254.065 28.421V51H256.065V28.421H254.065ZM255.065 50H248.834V52H255.065V50ZM257.732 25.1958C257.253 24.5766 256.824 23.8452 256.45 22.994L254.619 23.798C255.049 24.7782 255.558 25.6548 256.151 26.4202L257.732 25.1958ZM256.458 23.013C256.128 22.2162 255.951 21.3676 255.931 20.4598L253.932 20.5032C253.957 21.65 254.182 22.7445 254.611 23.779L256.458 23.013ZM255.931 20.4598C255.913 19.6448 256.141 18.7843 256.669 17.8641L254.935 16.8679C254.258 18.0471 253.905 19.2636 253.932 20.5032L255.931 20.4598ZM256.675 17.8546L265.117 2.7796L263.372 1.80239L254.93 16.8774L256.675 17.8546ZM264.244 3.291H271.279V1.291H264.244V3.291ZM270.426 1.77043L256.088 25.2874L257.795 26.3286L272.133 2.81156L270.426 1.77043Z" fill="black" mask="url(#path-1-outside-1_1_281)"/>
</svg>
