<svg width="76" height="17" viewBox="0 0 76 17" fill="none" xmlns="http://www.w3.org/2000/svg">
<path d="M10.7071 17L5.88711 9.42H8.18711L13.0471 17H10.7071ZM7.10711 15.24C5.74711 15.24 4.54711 14.94 3.50711 14.34C2.48044 13.7267 1.67378 12.88 1.08711 11.8C0.513776 10.7067 0.227109 9.44 0.227109 8C0.227109 6.57333 0.513776 5.32 1.08711 4.24C1.67378 3.14667 2.48044 2.29333 3.50711 1.68C4.54711 1.06667 5.74711 0.76 7.10711 0.76C8.49378 0.76 9.70044 1.06667 10.7271 1.68C11.7671 2.29333 12.5738 3.14667 13.1471 4.24C13.7204 5.32 14.0071 6.57333 14.0071 8C14.0071 9.44 13.7204 10.7067 13.1471 11.8C12.5738 12.88 11.7671 13.7267 10.7271 14.34C9.70044 14.94 8.49378 15.24 7.10711 15.24ZM7.10711 13.46C8.08044 13.46 8.93378 13.24 9.66711 12.8C10.4004 12.36 10.9671 11.7333 11.3671 10.92C11.7671 10.1067 11.9671 9.13333 11.9671 8C11.9671 6.86667 11.7671 5.89333 11.3671 5.08C10.9671 4.26667 10.4004 3.64667 9.66711 3.22C8.93378 2.78 8.08044 2.56 7.10711 2.56C6.14711 2.56 5.30044 2.78 4.56711 3.22C3.84711 3.64667 3.28044 4.26667 2.86711 5.08C2.46711 5.89333 2.26711 6.86667 2.26711 8C2.26711 9.13333 2.46711 10.1067 2.86711 10.92C3.28044 11.7333 3.84711 12.36 4.56711 12.8C5.30044 13.24 6.14711 13.46 7.10711 13.46ZM21.5712 15.24C20.5845 15.24 19.6912 15.0467 18.8912 14.66C18.1045 14.26 17.4712 13.66 16.9912 12.86C16.5112 12.0467 16.2712 11.0133 16.2712 9.76V0.999999H18.2712V9.78C18.2712 10.62 18.4112 11.3133 18.6912 11.86C18.9712 12.3933 19.3578 12.7933 19.8512 13.06C20.3578 13.3133 20.9445 13.44 21.6112 13.44C22.2912 13.44 22.8778 13.3133 23.3712 13.06C23.8645 12.7933 24.2445 12.3933 24.5112 11.86C24.7912 11.3133 24.9312 10.62 24.9312 9.78V0.999999H26.9312V9.76C26.9312 11.0133 26.6912 12.0467 26.2112 12.86C25.7312 13.66 25.0845 14.26 24.2712 14.66C23.4578 15.0467 22.5578 15.24 21.5712 15.24ZM29.692 15V0.999999H31.692V15H29.692ZM34.0348 15V13.44L40.8148 2.7H34.1348V0.999999H43.1348V2.56L36.3348 13.3H43.1948V15H34.0348ZM45.0113 15V13.44L51.7913 2.7H45.1113V0.999999H54.1113V2.56L47.3113 13.3H54.1713V15H45.0113ZM56.5279 15V0.999999H58.5279V13.42H64.9279V15H56.5279ZM68.7788 15V9.8L64.1588 0.999999H66.4188L70.0788 8.48H69.4788L73.1188 0.999999H75.3588L70.7788 9.8V15H68.7788Z" fill="white"/>
</svg>
